<?xml version="1.0" encoding="UTF-8" standalone="no"?>
<!DOCTYPE svg PUBLIC "-//W3C//DTD SVG 1.1//EN"
 "http://www.w3.org/Graphics/SVG/1.1/DTD/svg11.dtd">
<!-- Generated by graphviz version 2.43.0 (0)
 -->
<!-- Title: ERD Pages: 1 -->
<svg width="448pt" height="482pt"
 viewBox="0.00 0.00 447.50 482.00" xmlns="http://www.w3.org/2000/svg" xmlns:xlink="http://www.w3.org/1999/xlink">
<g id="graph0" class="graph" transform="scale(1 1) rotate(0) translate(4 478)">
<title>ERD</title>
<polygon fill="white" stroke="transparent" points="-4,4 -4,-478 443.5,-478 443.5,4 -4,4"/>
<!-- Category -->
<g id="node1" class="node">
<title>Category</title>
<polygon fill="lightblue" stroke="transparent" points="49,-440.5 49,-459.5 207,-459.5 207,-440.5 49,-440.5"/>
<text text-anchor="start" x="92.5" y="-447.3" font-family="Times,serif" font-weight="bold" font-size="14.00">Category</text>
<text text-anchor="start" x="61.5" y="-427.3" font-family="Times,serif" font-size="14.00">+ category_id : int</text>
<text text-anchor="start" x="72" y="-408.3" font-family="Times,serif" font-size="14.00">+ name : string</text>
<text text-anchor="start" x="51" y="-389.3" font-family="Times,serif" font-size="14.00">+ description : string</text>
<polygon fill="none" stroke="black" points="48,-382.5 48,-460.5 208,-460.5 208,-382.5 48,-382.5"/>
</g>
<!-- CategoryAttribute -->
<g id="node3" class="node">
<title>CategoryAttribute</title>
<polygon fill="lightblue" stroke="transparent" points="224,-265 224,-284 431,-284 431,-265 224,-265"/>
<text text-anchor="start" x="255.5" y="-271.8" font-family="Times,serif" font-weight="bold" font-size="14.00">CategoryAttribute</text>
<text text-anchor="start" x="226" y="-251.8" font-family="Times,serif" font-size="14.00">+ category_attribute_id : int</text>
<text text-anchor="start" x="261" y="-232.8" font-family="Times,serif" font-size="14.00">+ category_id : int</text>
<text text-anchor="start" x="260.5" y="-213.8" font-family="Times,serif" font-size="14.00">+ attribute_id : int</text>
<text text-anchor="start" x="257" y="-194.8" font-family="Times,serif" font-size="14.00">+ is_required : bool</text>
<polygon fill="none" stroke="black" points="222.5,-188.5 222.5,-285.5 431.5,-285.5 431.5,-188.5 222.5,-188.5"/>
</g>
<!-- Category&#45;&gt;CategoryAttribute -->
<g id="edge1" class="edge">
<title>Category&#45;&gt;CategoryAttribute</title>
<path fill="none" stroke="black" d="M174.15,-378.17C200.61,-353.91 234.21,-323.1 263.16,-296.54"/>
<polygon fill="black" stroke="black" points="265.8,-298.87 270.81,-289.53 261.07,-293.71 265.8,-298.87"/>
<text text-anchor="middle" x="239" y="-339.8" font-family="Times,serif" font-size="14.00">1 ⟶ *</text>
</g>
<!-- Product -->
<g id="node4" class="node">
<title>Product</title>
<polygon fill="lightblue" stroke="transparent" points="9,-294 9,-313 187,-313 187,-294 9,-294"/>
<text text-anchor="start" x="66.5" y="-300.8" font-family="Times,serif" font-weight="bold" font-size="14.00">Product</text>
<text text-anchor="start" x="35" y="-280.8" font-family="Times,serif" font-size="14.00">+ product_id : int</text>
<text text-anchor="start" x="31.5" y="-261.8" font-family="Times,serif" font-size="14.00">+ category_id : int</text>
<text text-anchor="start" x="42" y="-242.8" font-family="Times,serif" font-size="14.00">+ name : string</text>
<text text-anchor="start" x="49" y="-223.8" font-family="Times,serif" font-size="14.00">+ sku : string</text>
<text text-anchor="start" x="37" y="-204.8" font-family="Times,serif" font-size="14.00">+ price : decimal</text>
<text text-anchor="start" x="13.5" y="-185.8" font-family="Times,serif" font-size="14.00">+ created_at : datetime</text>
<text text-anchor="start" x="11" y="-166.8" font-family="Times,serif" font-size="14.00">+ updated_at : datetime</text>
<polygon fill="none" stroke="black" points="8,-160 8,-314 188,-314 188,-160 8,-160"/>
</g>
<!-- Category&#45;&gt;Product -->
<g id="edge5" class="edge">
<title>Category&#45;&gt;Product</title>
<path fill="none" stroke="black" d="M121.04,-378.17C118.58,-363.21 115.71,-345.75 112.85,-328.34"/>
<polygon fill="black" stroke="black" points="116.25,-327.41 111.17,-318.11 109.34,-328.55 116.25,-327.41"/>
<text text-anchor="middle" x="140" y="-339.8" font-family="Times,serif" font-size="14.00">1 ⟶ *</text>
</g>
<!-- Attribute -->
<g id="node2" class="node">
<title>Attribute</title>
<polygon fill="lightblue" stroke="transparent" points="254,-449.5 254,-468.5 401,-468.5 401,-449.5 254,-449.5"/>
<text text-anchor="start" x="291" y="-456.3" font-family="Times,serif" font-weight="bold" font-size="14.00">Attribute</text>
<text text-anchor="start" x="260.5" y="-436.3" font-family="Times,serif" font-size="14.00">+ attribute_id : int</text>
<text text-anchor="start" x="271.5" y="-417.3" font-family="Times,serif" font-size="14.00">+ name : string</text>
<text text-anchor="start" x="256" y="-398.3" font-family="Times,serif" font-size="14.00">+ data_type : string</text>
<text text-anchor="start" x="276.5" y="-379.3" font-family="Times,serif" font-size="14.00">+ unit : string</text>
<polygon fill="none" stroke="black" points="252.5,-373 252.5,-470 401.5,-470 401.5,-373 252.5,-373"/>
</g>
<!-- Attribute&#45;&gt;CategoryAttribute -->
<g id="edge2" class="edge">
<title>Attribute&#45;&gt;CategoryAttribute</title>
<path fill="none" stroke="black" d="M327,-368.69C327,-347.22 327,-322.13 327,-299.71"/>
<polygon fill="black" stroke="black" points="330.5,-299.62 327,-289.62 323.5,-299.62 330.5,-299.62"/>
<text text-anchor="middle" x="350" y="-339.8" font-family="Times,serif" font-size="14.00">1 ⟶ *</text>
</g>
<!-- ProductAttributeValue -->
<g id="node5" class="node">
<title>ProductAttributeValue</title>
<polygon fill="lightblue" stroke="transparent" points="90,-80.5 90,-99.5 335,-99.5 335,-80.5 90,-80.5"/>
<text text-anchor="start" x="123" y="-87.3" font-family="Times,serif" font-weight="bold" font-size="14.00">ProductAttributeValue</text>
<text text-anchor="start" x="92" y="-67.3" font-family="Times,serif" font-size="14.00">+ product_attribute_value_id : int</text>
<text text-anchor="start" x="149.5" y="-48.3" font-family="Times,serif" font-size="14.00">+ product_id : int</text>
<text text-anchor="start" x="111" y="-29.3" font-family="Times,serif" font-size="14.00">+ category_attribute_id : int</text>
<text text-anchor="start" x="156.5" y="-10.3" font-family="Times,serif" font-size="14.00">+ value : string</text>
<polygon fill="none" stroke="black" points="88.5,-4 88.5,-101 335.5,-101 335.5,-4 88.5,-4"/>
</g>
<!-- CategoryAttribute&#45;&gt;ProductAttributeValue -->
<g id="edge3" class="edge">
<title>CategoryAttribute&#45;&gt;ProductAttributeValue</title>
<path fill="none" stroke="black" d="M294.35,-184.19C280.52,-162.23 264.3,-136.5 249.94,-113.7"/>
<polygon fill="black" stroke="black" points="252.82,-111.72 244.53,-105.12 246.9,-115.45 252.82,-111.72"/>
<text text-anchor="middle" x="286" y="-126.8" font-family="Times,serif" font-size="14.00">1 ⟶ *</text>
</g>
<!-- Product&#45;&gt;ProductAttributeValue -->
<g id="edge4" class="edge">
<title>Product&#45;&gt;ProductAttributeValue</title>
<path fill="none" stroke="black" d="M148,-155.95C156.84,-141.81 165.9,-127.31 174.32,-113.82"/>
<polygon fill="black" stroke="black" points="177.42,-115.46 179.75,-105.12 171.49,-111.75 177.42,-115.46"/>
<text text-anchor="middle" x="192" y="-126.8" font-family="Times,serif" font-size="14.00">1 ⟶ *</text>
</g>
</g>
</svg>
