<svg xmlns="http://www.w3.org/2000/svg" width="1300" height="900">
<text x="20" y="36" font-size="22" font-family="Inter, Arial, sans-serif" font-weight="700" fill="#263238">UML Class Diagram: Product Catalog</text>
<rect x="60" y="80" width="300" height="240" rx="8" ry="8" fill="#ffffff" stroke="#cfd8dc" stroke-width="1.5"/>
<rect x="60" y="80" width="300" height="36" rx="8" ry="8" fill="#e3f2fd" stroke="#cfd8dc" stroke-width="1.5"/>
<text x="70" y="103.0" font-size="16" font-weight="700" font-family="Inter, Arial, sans-serif" fill="#0d47a1">Category</text>
<line x1="60" y1="116" x2="360" y2="116" stroke="#cfd8dc" stroke-width="1"/>
<text x="72" y="138" font-size="13" font-family="Inter, Arial, sans-serif" fill="#37474f">+ categoryId : int</text>
<text x="72" y="156" font-size="13" font-family="Inter, Arial, sans-serif" fill="#37474f">+ name : string</text>
<text x="72" y="174" font-size="13" font-family="Inter, Arial, sans-serif" fill="#37474f">+ description : string</text>
<text x="72" y="192" font-size="13" font-family="Inter, Arial, sans-serif" fill="#37474f">—</text>
<text x="72" y="210" font-size="13" font-family="Inter, Arial, sans-serif" fill="#37474f">+ addAttribute(attr: Attribute) : void</text>
<text x="72" y="228" font-size="13" font-family="Inter, Arial, sans-serif" fill="#37474f">+ getAttributes() : CategoryAttribute[]</text>
<text x="72" y="246" font-size="13" font-family="Inter, Arial, sans-serif" fill="#37474f">+ getProducts() : Product[]</text>

<rect x="480" y="80" width="300" height="220" rx="8" ry="8" fill="#ffffff" stroke="#cfd8dc" stroke-width="1.5"/>
<rect x="480" y="80" width="300" height="36" rx="8" ry="8" fill="#e3f2fd" stroke="#cfd8dc" stroke-width="1.5"/>
<text x="490" y="103.0" font-size="16" font-weight="700" font-family="Inter, Arial, sans-serif" fill="#0d47a1">Attribute</text>
<line x1="480" y1="116" x2="780" y2="116" stroke="#cfd8dc" stroke-width="1"/>
<text x="492" y="138" font-size="13" font-family="Inter, Arial, sans-serif" fill="#37474f">+ attributeId : int</text>
<text x="492" y="156" font-size="13" font-family="Inter, Arial, sans-serif" fill="#37474f">+ name : string</text>
<text x="492" y="174" font-size="13" font-family="Inter, Arial, sans-serif" fill="#37474f">+ dataType : DataType</text>
<text x="492" y="192" font-size="13" font-family="Inter, Arial, sans-serif" fill="#37474f">—</text>
<text x="492" y="210" font-size="13" font-family="Inter, Arial, sans-serif" fill="#37474f">+ validateValue(value) : bool</text>

<rect x="900" y="80" width="320" height="240" rx="8" ry="8" fill="#ffffff" stroke="#cfd8dc" stroke-width="1.5"/>
<rect x="900" y="80" width="320" height="36" rx="8" ry="8" fill="#e3f2fd" stroke="#cfd8dc" stroke-width="1.5"/>
<text x="910" y="103.0" font-size="16" font-weight="700" font-family="Inter, Arial, sans-serif" fill="#0d47a1">CategoryAttribute</text>
<line x1="900" y1="116" x2="1220" y2="116" stroke="#cfd8dc" stroke-width="1"/>
<text x="912" y="138" font-size="13" font-family="Inter, Arial, sans-serif" fill="#37474f">+ categoryAttributeId : int</text>
<text x="912" y="156" font-size="13" font-family="Inter, Arial, sans-serif" fill="#37474f">+ isRequired : bool</text>
<text x="912" y="174" font-size="13" font-family="Inter, Arial, sans-serif" fill="#37474f">+ category : Category</text>
<text x="912" y="192" font-size="13" font-family="Inter, Arial, sans-serif" fill="#37474f">+ attribute : Attribute</text>
<text x="912" y="210" font-size="13" font-family="Inter, Arial, sans-serif" fill="#37474f">—</text>
<text x="912" y="228" font-size="13" font-family="Inter, Arial, sans-serif" fill="#37474f">+ isRequired() : bool</text>
<text x="912" y="246" font-size="13" font-family="Inter, Arial, sans-serif" fill="#37474f">+ getAttributeDetails() : Attribute</text>

<rect x="180" y="420" width="360" height="280" rx="8" ry="8" fill="#ffffff" stroke="#cfd8dc" stroke-width="1.5"/>
<rect x="180" y="420" width="360" height="36" rx="8" ry="8" fill="#e3f2fd" stroke="#cfd8dc" stroke-width="1.5"/>
<text x="190" y="443.0" font-size="16" font-weight="700" font-family="Inter, Arial, sans-serif" fill="#0d47a1">Product</text>
<line x1="180" y1="456" x2="540" y2="456" stroke="#cfd8dc" stroke-width="1"/>
<text x="192" y="478" font-size="13" font-family="Inter, Arial, sans-serif" fill="#37474f">+ productId : int</text>
<text x="192" y="496" font-size="13" font-family="Inter, Arial, sans-serif" fill="#37474f">+ name : string</text>
<text x="192" y="514" font-size="13" font-family="Inter, Arial, sans-serif" fill="#37474f">+ sku : string</text>
<text x="192" y="532" font-size="13" font-family="Inter, Arial, sans-serif" fill="#37474f">+ price : decimal</text>
<text x="192" y="550" font-size="13" font-family="Inter, Arial, sans-serif" fill="#37474f">+ createdAt : datetime</text>
<text x="192" y="568" font-size="13" font-family="Inter, Arial, sans-serif" fill="#37474f">+ updatedAt : datetime</text>
<text x="192" y="586" font-size="13" font-family="Inter, Arial, sans-serif" fill="#37474f">+ category : Category</text>
<text x="192" y="604" font-size="13" font-family="Inter, Arial, sans-serif" fill="#37474f">—</text>
<text x="192" y="622" font-size="13" font-family="Inter, Arial, sans-serif" fill="#37474f">+ addAttributeValue(ca: CategoryAttribute, value) : void</text>
<text x="192" y="640" font-size="13" font-family="Inter, Arial, sans-serif" fill="#37474f">+ getAttributeValues() : ProductAttributeValue[]</text>
<text x="192" y="658" font-size="13" font-family="Inter, Arial, sans-serif" fill="#37474f">+ updatePrice(p: decimal) : void</text>

<rect x="780" y="470" width="360" height="240" rx="8" ry="8" fill="#ffffff" stroke="#cfd8dc" stroke-width="1.5"/>
<rect x="780" y="470" width="360" height="36" rx="8" ry="8" fill="#e3f2fd" stroke="#cfd8dc" stroke-width="1.5"/>
<text x="790" y="493.0" font-size="16" font-weight="700" font-family="Inter, Arial, sans-serif" fill="#0d47a1">ProductAttributeValue</text>
<line x1="780" y1="506" x2="1140" y2="506" stroke="#cfd8dc" stroke-width="1"/>
<text x="792" y="528" font-size="13" font-family="Inter, Arial, sans-serif" fill="#37474f">+ productAttributeValueId : int</text>
<text x="792" y="546" font-size="13" font-family="Inter, Arial, sans-serif" fill="#37474f">+ value : any</text>
<text x="792" y="564" font-size="13" font-family="Inter, Arial, sans-serif" fill="#37474f">+ product : Product</text>
<text x="792" y="582" font-size="13" font-family="Inter, Arial, sans-serif" fill="#37474f">+ categoryAttribute : CategoryAttribute</text>
<text x="792" y="600" font-size="13" font-family="Inter, Arial, sans-serif" fill="#37474f">—</text>
<text x="792" y="618" font-size="13" font-family="Inter, Arial, sans-serif" fill="#37474f">+ validateValue() : bool</text>
<text x="792" y="636" font-size="13" font-family="Inter, Arial, sans-serif" fill="#37474f">+ formatValue() : string</text>

<defs><marker id="arrow" markerWidth="10" markerHeight="10" refX="8" refY="3" orient="auto" markerUnits="strokeWidth"><path d="M0,0 L0,6 L9,3 z" fill="#90a4ae"/></marker></defs><line x1="210" y1="320" x2="260" y2="420" stroke="#90a4ae" stroke-width="1.5" marker-end="url(#arrow)"/>
<text x="239.0" y="366.0" font-size="12" font-family="Inter, Arial, sans-serif" fill="#607d8b">Category 1 — * Product</text>
<defs><marker id="arrow" markerWidth="10" markerHeight="10" refX="8" refY="3" orient="auto" markerUnits="strokeWidth"><path d="M0,0 L0,6 L9,3 z" fill="#90a4ae"/></marker></defs><line x1="300" y1="200" x2="900" y2="200" stroke="#90a4ae" stroke-width="1.5" marker-end="url(#arrow)"/>
<text x="604.0" y="196.0" font-size="12" font-family="Inter, Arial, sans-serif" fill="#607d8b">Category 1 — * CategoryAttribute</text>
<defs><marker id="arrow" markerWidth="10" markerHeight="10" refX="8" refY="3" orient="auto" markerUnits="strokeWidth"><path d="M0,0 L0,6 L9,3 z" fill="#90a4ae"/></marker></defs><line x1="630" y1="200" x2="900" y2="220" stroke="#90a4ae" stroke-width="1.5" marker-end="url(#arrow)"/>
<text x="769.0" y="206.0" font-size="12" font-family="Inter, Arial, sans-serif" fill="#607d8b">Attribute 1 — * CategoryAttribute</text>
<defs><marker id="arrow" markerWidth="10" markerHeight="10" refX="8" refY="3" orient="auto" markerUnits="strokeWidth"><path d="M0,0 L0,6 L9,3 z" fill="#90a4ae"/></marker></defs><line x1="460" y1="560" x2="780" y2="560" stroke="#90a4ae" stroke-width="1.5" marker-end="url(#arrow)"/>
<text x="624.0" y="556.0" font-size="12" font-family="Inter, Arial, sans-serif" fill="#607d8b">Product 1 — * ProductAttributeValue</text>
<defs><marker id="arrow" markerWidth="10" markerHeight="10" refX="8" refY="3" orient="auto" markerUnits="strokeWidth"><path d="M0,0 L0,6 L9,3 z" fill="#90a4ae"/></marker></defs><line x1="980" y1="320" x2="980" y2="470" stroke="#90a4ae" stroke-width="1.5" marker-end="url(#arrow)"/>
<text x="984.0" y="391.0" font-size="12" font-family="Inter, Arial, sans-serif" fill="#607d8b">CategoryAttribute 1 — * ProductAttributeValue</text>
</svg>